HIERARCHY
ROOT Hips
{
  OFFSET 5.84602e-005 68.8428 3.50346
  CHANNELS 6 Xposition Yposition Zposition Zrotation Xrotation Yrotation
  JOINT Spine
  {
    OFFSET 0 8.597 -4.6522
    CHANNELS 3 Zrotation Xrotation Yrotation
    JOINT Spine1
    {
      OFFSET 0 7.8454 0.4098
      CHANNELS 3 Zrotation Xrotation Yrotation
      JOINT Spine2
      {
        OFFSET 0 9.7078 -2.1609
        CHANNELS 3 Zrotation Xrotation Yrotation
        JOINT Neck
        {
          OFFSET 0 21.8761 -0.4549
          CHANNELS 3 Zrotation Xrotation Yrotation
          JOINT Head
          {
            OFFSET 0 12.3537 3.3602
            CHANNELS 3 Zrotation Xrotation Yrotation
            End Site
            {
              OFFSET 0.0001 18.9506 0.5657
            }
          }
        }
        JOINT LeftShoulder
        {
          OFFSET 2.2086 21.1115 7.2329
          CHANNELS 3 Zrotation Xrotation Yrotation
          JOINT LeftArm
          {
            OFFSET 13.1193 3.0282 -4.8998
            CHANNELS 3 Zrotation Xrotation Yrotation
            JOINT LeftForeArm
            {
              OFFSET 27.4081 -0.0973053 -0.2375
              CHANNELS 3 Zrotation Xrotation Yrotation
              JOINT LeftHand
              {
                OFFSET 22.8641 0.0662994 -0.1369
                CHANNELS 3 Zrotation Xrotation Yrotation
                JOINT LeftHandIndex1
                {
                  OFFSET 8.8614 0.775009 2.4612
                  CHANNELS 3 Zrotation Xrotation Yrotation
                  JOINT LeftHandIndex2
                  {
                    OFFSET 3.3146 -0.808304 0.5841
                    CHANNELS 3 Zrotation Xrotation Yrotation
                    JOINT LeftHandIndex3
                    {
                      OFFSET 2.2628 -0.552002 0.3989
                      CHANNELS 3 Zrotation Xrotation Yrotation
                      End Site
                      {
                        OFFSET 1.6102 -0.4807 0.2612
                      }
                    }
                  }
                }
                JOINT LeftHandMiddle1
                {
                  OFFSET 8.9937 0.895004 0.2143
                  CHANNELS 3 Zrotation Xrotation Yrotation
                  JOINT LeftHandMiddle2
                  {
                    OFFSET 4.0984 0.0113983 -0.0242
                    CHANNELS 3 Zrotation Xrotation Yrotation
                    JOINT LeftHandMiddle3
                    {
                      OFFSET 2.2716 0.00689697 -0.0138001
                      CHANNELS 3 Zrotation Xrotation Yrotation
                      End Site
                      {
                        OFFSET 2.0404 -0.1441 0.0027
                      }
                    }
                  }
                }
                JOINT LeftHandRing1
                {
                  OFFSET 8.5234 0.597198 -2.0164
                  CHANNELS 3 Zrotation Xrotation Yrotation
                  JOINT LeftHandRing2
                  {
                    OFFSET 3.7188 -0.188293 -0.2328
                    CHANNELS 3 Zrotation Xrotation Yrotation
                    JOINT LeftHandRing3
                    {
                      OFFSET 2.1191 -0.106598 -0.1332
                      CHANNELS 3 Zrotation Xrotation Yrotation
                      End Site
                      {
                        OFFSET 1.8737 -0.2304 -0.0886
                      }
                    }
                  }
                }
                JOINT LeftHandPinky1
                {
                  OFFSET 7.9094 -0.601089 -3.4825
                  CHANNELS 3 Zrotation Xrotation Yrotation
                  JOINT LeftHandPinky2
                  {
                    OFFSET 2.2874 -0.477005 -0.6314
                    CHANNELS 3 Zrotation Xrotation Yrotation
                    JOINT LeftHandPinky3
                    {
                      OFFSET 1.6774 -0.349396 -0.4633
                      CHANNELS 3 Zrotation Xrotation Yrotation
                      End Site
                      {
                        OFFSET 1.4888 -0.4091 -0.3416
                      }
                    }
                  }
                }
                JOINT LeftHandThumb1
                {
                  OFFSET 1.833 -1.3875 1.3896
                  CHANNELS 3 Zrotation Xrotation Yrotation
                  JOINT LeftHandThumb2
                  {
                    OFFSET 3.4129 -1.121 2.5732
                    CHANNELS 3 Zrotation Xrotation Yrotation
                    JOINT LeftHandThumb3
                    {
                      OFFSET 2.2474 -0.804199 1.6192
                      CHANNELS 3 Zrotation Xrotation Yrotation
                      End Site
                      {
                        OFFSET 1.6527 -0.5689 1.1317
                      }
                    }
                  }
                }
              }
            }
          }
        }
        JOINT RightShoulder
        {
          OFFSET -2.2086 21.1115 7.2329
          CHANNELS 3 Zrotation Xrotation Yrotation
          JOINT RightArm
          {
            OFFSET -13.1216 3.0287 -4.9007
            CHANNELS 3 Zrotation Xrotation Yrotation
            JOINT RightForeArm
            {
              OFFSET -27.4081 -0.0973053 -0.2375
              CHANNELS 3 Zrotation Xrotation Yrotation
              JOINT RightHand
              {
                OFFSET -22.8641 0.0664063 -0.1369
                CHANNELS 3 Zrotation Xrotation Yrotation
                JOINT RightHandIndex1
                {
                  OFFSET -8.8614 0.774994 2.4612
                  CHANNELS 3 Zrotation Xrotation Yrotation
                  JOINT RightHandIndex2
                  {
                    OFFSET -3.3146 -0.808304 0.5841
                    CHANNELS 3 Zrotation Xrotation Yrotation
                    JOINT RightHandIndex3
                    {
                      OFFSET -2.2628 -0.552002 0.3989
                      CHANNELS 3 Zrotation Xrotation Yrotation
                      End Site
                      {
                        OFFSET -1.6102 -0.4807 0.2612
                      }
                    }
                  }
                }
                JOINT RightHandMiddle1
                {
                  OFFSET -8.9937 0.894989 0.2143
                  CHANNELS 3 Zrotation Xrotation Yrotation
                  JOINT RightHandMiddle2
                  {
                    OFFSET -4.0984 0.0113983 -0.0242
                    CHANNELS 3 Zrotation Xrotation Yrotation
                    JOINT RightHandMiddle3
                    {
                      OFFSET -2.2716 0.00691223 -0.0138001
                      CHANNELS 3 Zrotation Xrotation Yrotation
                      End Site
                      {
                        OFFSET -2.0404 -0.1441 0.0027
                      }
                    }
                  }
                }
                JOINT RightHandRing1
                {
                  OFFSET -8.5234 0.597198 -2.0164
                  CHANNELS 3 Zrotation Xrotation Yrotation
                  JOINT RightHandRing2
                  {
                    OFFSET -3.7188 -0.188309 -0.2328
                    CHANNELS 3 Zrotation Xrotation Yrotation
                    JOINT RightHandRing3
                    {
                      OFFSET -2.1191 -0.106598 -0.1332
                      CHANNELS 3 Zrotation Xrotation Yrotation
                      End Site
                      {
                        OFFSET -1.8737 -0.2304 -0.0886
                      }
                    }
                  }
                }
                JOINT RightHandPinky1
                {
                  OFFSET -7.9094 -0.601105 -3.4825
                  CHANNELS 3 Zrotation Xrotation Yrotation
                  JOINT RightHandPinky2
                  {
                    OFFSET -2.2874 -0.477005 -0.6314
                    CHANNELS 3 Zrotation Xrotation Yrotation
                    JOINT RightHandPinky3
                    {
                      OFFSET -1.6774 -0.349396 -0.4633
                      CHANNELS 3 Zrotation Xrotation Yrotation
                      End Site
                      {
                        OFFSET -1.4888 -0.4091 -0.3416
                      }
                    }
                  }
                }
                JOINT RightHandThumb1
                {
                  OFFSET -1.833 -1.38751 1.3896
                  CHANNELS 3 Zrotation Xrotation Yrotation
                  JOINT RightHandThumb2
                  {
                    OFFSET -3.41299 -1.12099 2.5732
                    CHANNELS 3 Zrotation Xrotation Yrotation
                    JOINT RightHandThumb3
                    {
                      OFFSET -2.24741 -0.804108 1.6192
                      CHANNELS 3 Zrotation Xrotation Yrotation
                      End Site
                      {
                        OFFSET -1.6527 -0.5689 1.1317
                      }
                    }
                  }
                }
              }
            }
          }
        }
      }
    }
  }
  JOINT RightUpLeg
  {
    OFFSET -9.1966 3.8861 -0.7581
    CHANNELS 3 Zrotation Xrotation Yrotation
    JOINT RightLeg
    {
      OFFSET -0.7359 -41.0265 0
      CHANNELS 3 Zrotation Xrotation Yrotation
      JOINT RightFoot
      {
        OFFSET 0 -40.2855 0
        CHANNELS 3 Zrotation Xrotation Yrotation
        JOINT RightToeBase
        {
          OFFSET 0 -5.6122 11.7359
          CHANNELS 3 Zrotation Xrotation Yrotation
          End Site
          {
            OFFSET 0 0 7.8731
          }
        }
      }
    }
  }
  JOINT LeftUpLeg
  {
    OFFSET 9.1965 3.8864 -0.7581
    CHANNELS 3 Zrotation Xrotation Yrotation
    JOINT LeftLeg
    {
      OFFSET 0.7359 -41.0268 0
      CHANNELS 3 Zrotation Xrotation Yrotation
      JOINT LeftFoot
      {
        OFFSET 0 -40.2855 0
        CHANNELS 3 Zrotation Xrotation Yrotation
        JOINT LeftToeBase
        {
          OFFSET 0 -5.6122 11.7359
          CHANNELS 3 Zrotation Xrotation Yrotation
          End Site
          {
            OFFSET 0 0 7.8731
          }
        }
      }
    }
  }
}
MOTION
Frames:	7
Frame Time:	0.0333333
5.84602e-005 68.8428 3.50346 0 0 -0 0 0 -0 0 0 -0 0 0 -0 0 0 -0 0 0 -0 0 0 -0 0 0 -0 0 0 -0 0 0 -0 0 0 -0 0 0 -0 0 0 -0 0 0 -0 -0.0146107 -8.87603e-005 -2.63497e-007 2.99804e-018 -2.42657e-020 -1.42182e-022 0 0 -0 -0.0187562 -0.001176 5.858e-005 5.06224e-018 3.88251e-019 1.21329e-020 0 0 -0 -0.012269 -0.00324817 0.000675346 -1.74678e-018 3.88251e-019 -0 0 0 -0 0 0 -0 0 0 -0 0 0 -0 0 0 -0 0 0 -0 0 0 -0 0 0 -0 0 0 -0 0 0 -0 0 0 -0 0.0149955 -9.10982e-005 2.64101e-007 -9.69331e-018 1.21329e-020 -4.7394e-023 0 0 -0 0.0189956 -0.00119102 -5.96516e-005 -5.41541e-019 0 2.42657e-020 0 0 -0 0.0122698 -0.00324857 -0.000673756 -2.00796e-019 0 -1.94126e-019 0 0 -0 0 0 -0 0 0 -0 3.39842 1.33031 -0.0637918 -5.65207e-008 0.834868 -0.000436188 -3.39935 -2.16518 -0.0642563 -8.89002e-024 -1.18485e-023 -1.48106e-024 -3.39844 1.35642 0.0640283 -3.18788e-007 0.782166 -0.000588827 3.39931 -2.13858 0.0634662 1.1399e-023 0 -0 
-15.706 36.3566 -10.8597 64.5388 47.2292 1.05361e-006 -4.60979 4.77351 -2.69044 -9.03803 9.74393 -5.01284 -9.03801 9.74393 -5.01282 -11.1418 0.110563 -7.8632 -0.679859 -1.01188 15.3463 -9.62519 8.97054 -31.8463 -24.0975 -36.7794 -3.29383 -2.62326 7.25789 -33.1971 27.9809 -3.53893 -16.3214 5.55514e-007 -6.96779e-007 -7.13336e-008 7.35846e-007 -2.71224e-007 1.651e-007 2.04152e-007 4.92488e-008 3.77555e-008 5.55514e-007 -6.96779e-007 -7.13336e-008 -0.0145914 -9.05803e-005 -3.66809e-006 2.04151e-007 4.9244e-008 3.77616e-008 5.55514e-007 -6.96779e-007 -7.13336e-008 -0.0187979 -0.0011775 5.94442e-005 3.53684e-007 -7.45864e-007 -1.09222e-007 5.55514e-007 -6.96779e-007 -7.13336e-008 -0.0122653 -0.00324737 0.00067931 2.04153e-007 4.92434e-008 3.7755e-008 5.55514e-007 -6.96779e-007 -7.13336e-008 7.35846e-007 -2.71224e-007 1.651e-007 2.04152e-007 4.92488e-008 3.77555e-008 -2.67738 3.61804 -11.5675 0.406545 17.0136 15.8846 -26.2107 -15.1411 21.2667 3.03147 5.57823 1.56685 2.20695e-031 -7.95139e-015 1.59028e-015 -3.18055e-015 -3.97569e-015 -3.18055e-015 -4.41391e-032 -3.18055e-015 -7.95139e-016 2.20695e-031 -7.95139e-015 1.59028e-015 0.0149801 -9.69816e-005 5.7077e-006 -8.42421e-007 -1.49263e-006 6.99346e-008 2.20695e-031 -7.95139e-015 1.59028e-015 0.0189651 -0.00118824 -5.96063e-005 3.18055e-015 -1.59028e-015 2.38542e-015 2.20695e-031 -7.95139e-015 1.59028e-015 0.0121941 -0.00322479 -0.000670064 -1.27222e-014 -7.95139e-016 2.38542e-015 2.20695e-031 -7.95139e-015 1.59028e-015 -3.18055e-015 -3.97569e-015 -3.18055e-015 -4.41391e-032 -3.18055e-015 -7.95139e-016 -17.6656 -30.496 -19.5955 3.87406 22.1125 -3.30156 7.17609 4.04916 -2.24848 4.85851e-007 -3.55134e-006 1.8687e-007 -7.65171 -25.4534 26.5536 2.93334 53.7452 -2.59871 5.31105 -2.99533 -3.9704 -1.97732e-006 4.36183e-006 -5.37734e-007 
-37.2267 10.9828 -21.7808 118.364 86.618 1.17528e-005 -7.81033 8.18952 -5.61151 -15.0166 17.0392 -10.2025 -15.0166 17.0392 -10.2025 -20.3861 0.193722 -14.4214 -0.848245 -1.69684 28.154 -11.3187 10.2017 -59.0906 -52.1029 -67.0478 -12.4888 0.397007 7.78228 -61.2418 49.8359 -5.86022 -30.0478 1.59028e-015 0 3.18055e-015 8.34896e-015 -3.18055e-015 6.36111e-015 8.74653e-015 0 -1.59028e-015 1.59028e-015 0 3.18055e-015 -0.0146208 -8.996e-005 6.68259e-007 1.07919e-008 4.91501e-007 -3.55435e-007 1.59028e-015 0 3.18055e-015 -0.0187703 -0.00117451 5.75261e-005 -1.59028e-015 -1.59028e-015 -1.59028e-015 1.59028e-015 0 3.18055e-015 -0.0122598 -0.00324514 0.000679308 1.04685e-008 4.91916e-007 -3.55536e-007 1.59028e-015 0 3.18055e-015 8.34896e-015 -3.18055e-015 6.36111e-015 8.74653e-015 0 -1.59028e-015 -3.81144 6.31358 -21.3073 -7.00566 28.2569 32.0012 -39.5363 -23.1135 41.5444 5.32298 10.2214 2.90613 -2.19284e-015 2.46493e-014 -3.97569e-016 -2.82026e-015 2.46493e-014 -1.98785e-016 -3.44146e-015 2.46493e-014 -1.98785e-016 -2.19284e-015 2.46493e-014 -3.97569e-016 0.015001 -9.08538e-005 2.34486e-007 -3.32765e-007 2.38768e-008 5.48723e-009 -2.19284e-015 2.46493e-014 -3.97569e-016 0.0189818 -0.00118993 -5.98159e-005 3.00041e-015 0 3.97569e-016 -2.19284e-015 2.46493e-014 -3.97569e-016 0.0122749 -0.00324994 -0.000676579 7.93896e-015 -3.97569e-016 1.98785e-016 -2.19284e-015 2.46493e-014 -3.97569e-016 -2.82026e-015 2.46493e-014 -1.98785e-016 -3.44146e-015 2.46493e-014 -1.98785e-016 -59.8167 -48.6548 -51.2882 10.3139 44.5739 -7.55218 15.942 6.0479 -3.85985 1.48957e-005 -2.20986e-006 -4.26065e-006 4.16975 -35.0838 56.9868 109.695 85.1654 -107.942 8.44345 0.115375 -5.72224 1.59028e-015 0 -6.36111e-015 
-43.2655 3.31805 -24.1122 -48.1528 83.5148 -180 -8.51007 8.9417 -6.44016 -16.266 18.7004 -11.6847 -16.266 18.7004 -11.6847 -22.5867 0.193079 -16.0654 -0.840669 -1.83061 31.364 -11.4365 9.19054 -65.7569 -64.8025 -74.2982 -20.304 1.35088 6.79145 -67.9554 55.1283 -6.29184 -33.5061 -8.74653e-015 4.77083e-015 -3.18055e-015 -6.36111e-015 3.18055e-015 3.18055e-015 -5.56597e-015 0 3.18055e-015 -8.74653e-015 4.77083e-015 -3.18055e-015 -0.0145794 -9.18581e-005 -1.47713e-006 3.18055e-015 4.77083e-015 -6.36111e-015 -8.74653e-015 4.77083e-015 -3.18055e-015 -0.0187336 -0.00117866 6.42149e-005 7.95139e-016 1.59028e-015 3.18055e-015 -8.74653e-015 4.77083e-015 -3.18055e-015 -0.0122728 -0.00324757 0.000670789 7.95139e-016 -1.59028e-015 3.18055e-015 -8.74653e-015 4.77083e-015 -3.18055e-015 -6.36111e-015 3.18055e-015 3.18055e-015 -5.56597e-015 0 3.18055e-015 -3.94836 6.91084 -23.7668 -9.99578 30.2978 36.6153 -41.9096 -23.9804 46.9265 5.86227 11.3822 3.24975 0 0 -4.77083e-015 -4.77083e-015 -3.18055e-015 -0 1.59028e-015 3.18055e-015 -1.59028e-015 0 0 -4.77083e-015 0.0149879 -9.34247e-005 1.16304e-007 3.97569e-015 6.36111e-015 -1.59028e-015 0 0 -4.77083e-015 0.0189711 -0.00118931 -6.15354e-005 -2.38542e-015 0 3.18055e-015 0 0 -4.77083e-015 0.0122666 -0.00324606 -0.000675819 7.95139e-016 0 4.77083e-015 0 0 -4.77083e-015 -4.77083e-015 -3.18055e-015 -0 1.59028e-015 3.18055e-015 -1.59028e-015 -73.6921 -49.9473 -61.6528 12.6395 49.8768 -9.25216 18.0119 6.53715 -4.20987 -1.10348e-031 -6.36111e-015 -9.93923e-016 8.07764 -34.7197 65.0263 155.466 77.7101 -152.738 9.23883 0.29387 -6.15862 4.63552e-008 8.73384e-007 -4.46603e-008 
-39.7337 7.89084 -22.7687 -56.0607 89.3018 180 -8.10483 8.50617 -5.9495 -15.5458 17.7354 -10.8059 -15.5458 17.7354 -10.8059 -21.058 0.150139 -15.1037 -0.847319 -1.7543 29.4813 -11.3656 9.85136 -61.8645 -56.6507 -70.0881 -15.0251 0.77595 7.46808 -63.6552 52.0323 -6.04719 -31.477 -2.33871e-006 1.25063e-006 -1.47342e-006 -1.87696e-007 5.67247e-007 -2.30108e-006 -3.48613e-008 1.0007e-006 -1.584e-006 -2.33871e-006 1.25063e-006 -1.47342e-006 -0.0146133 -8.68787e-005 -3.43481e-006 -3.49091e-008 1.00091e-006 -1.58387e-006 -2.33871e-006 1.25063e-006 -1.47342e-006 -0.0187534 -0.00117762 5.83784e-005 -3.49368e-008 1.00096e-006 -1.58383e-006 -2.33871e-006 1.25063e-006 -1.47342e-006 -0.0123134 -0.00325656 0.000675933 -3.49396e-008 1.00086e-006 -1.58389e-006 -2.33871e-006 1.25063e-006 -1.47342e-006 -1.87696e-007 5.67247e-007 -2.30108e-006 -3.48613e-008 1.0007e-006 -1.584e-006 -3.87492 6.56503 -22.3233 -8.1899 29.1469 33.8822 -40.5527 -23.5352 43.7645 5.5477 10.7015 3.04775 -5.76476e-015 2.54444e-014 -2.38542e-015 -1.66965e-006 1.23288e-007 -1.13907e-007 -2.38542e-015 -1.59028e-015 -3.18055e-015 -5.76476e-015 2.54444e-014 -2.38542e-015 0.0149962 -9.19906e-005 -3.22241e-007 -7.15625e-015 0 -7.95139e-016 -5.76476e-015 2.54444e-014 -2.38542e-015 0.0189892 -0.00119103 -6.03006e-005 -5.96354e-016 0 1.59028e-015 -5.76476e-015 2.54444e-014 -2.38542e-015 0.0122739 -0.0032506 -0.000675406 -6.95746e-015 -3.18055e-015 -7.95139e-016 -5.76476e-015 2.54444e-014 -2.38542e-015 -1.66965e-006 1.23288e-007 -1.13907e-007 -2.38542e-015 -1.59028e-015 -3.18055e-015 -65.4707 -49.3664 -55.5327 11.2254 46.7784 -8.20314 16.8086 6.2481 -4.00727 2.7247e-006 3.44219e-006 -4.32757e-006 5.78964 -35.0936 60.3584 139.39 82.6401 -137.244 8.79625 0.213754 -5.90303 -1.59028e-015 3.18055e-015 3.18055e-015 
-39.308 8.42406 -22.6032 -57.0437 89.9952 -179.965 -8.05525 8.45292 -5.89162 -15.4571 17.618 -10.7024 -15.4571 17.618 -10.7024 -20.7427 0.120845 -14.9898 -0.847697 -1.74474 29.2557 -11.3577 9.91762 -61.3947 -55.8235 -69.5746 -14.5405 0.694881 7.55735 -62.9285 51.6599 -6.01623 -31.234 -2.96447e-007 -8.45622e-007 -1.44926e-006 2.59578e-007 1.87207e-006 -1.20991e-007 -1.48224e-007 -4.22811e-007 -7.24631e-007 -2.96447e-007 -8.45622e-007 -1.44926e-006 -0.0146112 -8.54195e-005 -1.60211e-006 -1.07733e-006 4.77069e-007 -1.23094e-006 -2.96447e-007 -8.45622e-007 -1.44926e-006 -0.01872 -0.00117343 5.6967e-005 -1.4824e-007 -4.22693e-007 -7.24699e-007 -2.96447e-007 -8.45622e-007 -1.44926e-006 -0.0122933 -0.00325013 0.000679765 -1.48253e-007 -4.22734e-007 -7.24672e-007 -2.96447e-007 -8.45622e-007 -1.44926e-006 2.59578e-007 1.87207e-006 -1.20991e-007 -1.48224e-007 -4.22811e-007 -7.24631e-007 -3.8648 6.52273 -22.1505 -7.98336 29.0001 33.5597 -40.3837 -23.4697 43.3865 5.50969 10.6199 3.02364 -3.18055e-015 -1.59028e-015 -7.95139e-016 -3.57812e-015 1.59028e-015 1.59028e-015 -3.47873e-015 0 1.59028e-015 -3.18055e-015 -1.59028e-015 -7.95139e-016 0.0149968 -9.16297e-005 9.71166e-007 5.1684e-015 -1.59028e-015 -1.59028e-015 -3.18055e-015 -1.59028e-015 -7.95139e-016 0.0189776 -0.00119068 -6.07958e-005 -2.28602e-015 3.18055e-015 1.59028e-015 -3.18055e-015 -1.59028e-015 -7.95139e-016 0.0122549 -0.00324341 -0.000673794 6.95746e-016 3.18055e-015 -7.95139e-016 -3.18055e-015 -1.59028e-015 -7.95139e-016 -3.57812e-015 1.59028e-015 1.59028e-015 -3.47873e-015 0 1.59028e-015 -64.4997 -49.2631 -54.8054 11.0659 46.4049 -8.08783 16.6624 6.21401 -3.9825 -3.93792e-006 2.58156e-006 3.33099e-006 5.51399 -35.1093 59.789 135.979 83.1634 -133.9 8.7384 0.199908 -5.87255 -7.20917e-007 7.57354e-007 1.74985e-006 
-39.308 8.42406 -22.6032 -57.0437 89.9952 -179.965 -8.05525 8.45292 -5.89162 -15.4571 17.618 -10.7024 -15.4571 17.618 -10.7024 -20.5925 0.0934249 -14.9915 -0.847696 -1.74475 29.2558 -11.3577 9.91762 -61.3947 -55.8235 -69.5746 -14.5405 0.682131 7.58123 -62.6915 51.6599 -6.01623 -31.234 5.56597e-015 4.77083e-015 -0 7.95139e-016 6.36111e-015 -3.18055e-015 7.95139e-016 4.77083e-015 -6.36111e-015 5.56597e-015 4.77083e-015 -0 -0.0146394 -8.80702e-005 -2.90941e-006 6.36111e-015 4.77083e-015 -0 5.56597e-015 4.77083e-015 -0 -0.0187587 -0.00117902 5.90717e-005 1.59028e-015 -1.59028e-015 3.18055e-015 5.56597e-015 4.77083e-015 -0 -0.0122729 -0.00324607 0.000674367 3.18055e-015 1.59028e-015 -0 5.56597e-015 4.77083e-015 -0 7.95139e-016 6.36111e-015 -3.18055e-015 7.95139e-016 4.77083e-015 -6.36111e-015 -3.8648 6.52273 -22.1505 -7.98336 29.0001 33.5597 -40.3837 -23.4697 43.3865 5.50969 10.6199 3.02364 -3.18055e-015 -1.59028e-015 -7.95139e-016 -3.57812e-015 1.59028e-015 1.59028e-015 -3.47873e-015 0 1.59028e-015 -3.18055e-015 -1.59028e-015 -7.95139e-016 0.0149968 -9.16297e-005 9.71166e-007 5.1684e-015 -1.59028e-015 -1.59028e-015 -3.18055e-015 -1.59028e-015 -7.95139e-016 0.0189776 -0.00119068 -6.07958e-005 -2.28602e-015 3.18055e-015 1.59028e-015 -3.18055e-015 -1.59028e-015 -7.95139e-016 0.0122549 -0.00324341 -0.000673794 6.95746e-016 3.18055e-015 -7.95139e-016 -3.18055e-015 -1.59028e-015 -7.95139e-016 -3.57812e-015 1.59028e-015 1.59028e-015 -3.47873e-015 0 1.59028e-015 -64.4997 -49.2631 -54.8054 11.0659 46.4049 -8.08783 16.6624 6.21401 -3.9825 -3.93792e-006 2.58156e-006 3.33099e-006 5.51399 -35.1093 59.789 135.979 83.1634 -133.9 8.7384 0.199908 -5.87255 -7.20917e-007 7.57354e-007 1.74985e-006 
